# Blender v2.79 (sub 0) OBJ File: 'ventillateur ok.blend'
# www.blender.org
mtllib ventillateur.mtl
o Cube
v 1.270840 -1.156282 -0.251780
v 1.270840 -1.156282 0.251780
v -1.270840 -1.156282 0.251780
v -1.270840 -1.156282 -0.251781
v 1.270841 1.156282 -0.251780
v 1.270839 1.156282 0.251781
v -1.270841 1.156282 0.251780
v -1.270840 1.156282 -0.251780
vt -0.002270 0.997441
vt 0.000000 0.000000
vt 0.997819 0.000000
vt 1.000090 0.997441
vt -0.003307 0.001280
vt 1.001323 0.001280
vt 1.003593 0.998721
vt -0.003307 0.996366
vt 0.000000 0.666667
vt 0.321321 0.666667
vt 0.321321 1.000000
vt 0.000000 1.000000
vt 0.321321 0.333333
vt 0.321321 0.666667
vt 0.000000 0.666667
vt 0.000000 0.333333
vt 0.642643 0.333333
vt 0.321321 0.000000
vt 0.642643 0.000000
vt 0.963964 0.333333
vt 0.642643 0.333333
vt 0.642643 0.000000
vt 0.963964 0.000000
vn -0.0000 -0.0000 1.0000
vn 0.0000 0.0000 -1.0000
vn 0.0000 -1.0000 -0.0000
vn 0.0000 1.0000 0.0000
vn 1.0000 -0.0000 0.0000
vn -1.0000 -0.0000 -0.0000
usemtl Ventillateur
s off
f 2/1/1 6/2/1 7/3/1 3/4/1
f 5/5/2 1/6/2 4/7/2 8/8/2
usemtl Noir
f 1/9/3 2/10/3 3/11/3 4/12/3
f 5/13/4 8/14/4 7/15/4 6/16/4
f 1/17/5 5/13/5 6/18/5 2/19/5
f 3/20/6 7/21/6 8/22/6 4/23/6
