# Blender v2.79 (sub 0) OBJ File: 'CPU.blend'
# www.blender.org
mtllib CPU.mtl
o Cube
v 0.747939 -0.145645 -0.770861
v 0.747939 -0.145645 0.770862
v -0.747938 -0.145645 0.770862
v -0.747938 -0.145645 -0.770865
v 0.747939 0.215268 -0.770857
v 0.747938 0.215268 0.770863
v -0.747939 0.215268 0.770862
v -0.747938 0.215268 -0.770862
vt 0.059259 0.120744
vt 0.950951 0.120744
vt 0.943543 0.945064
vt 0.059259 0.945064
vt 0.947247 0.117024
vt 0.947247 0.948212
vt 0.051852 0.951645
vt 0.051852 0.120458
vt 0.642643 0.333333
vt 0.321321 0.333333
vt 0.321321 0.000000
vt 0.642643 0.000000
vt -0.002270 0.997441
vt 0.000000 0.000000
vt 0.997819 0.000000
vt 1.000090 0.997441
vt 0.963964 0.333333
vt 0.642643 0.333333
vt 0.642643 0.000000
vt 0.963964 0.000000
vt -0.003307 0.001280
vt 1.001323 0.001280
vt 0.642643 0.666667
vt -0.003307 0.996366
vn 0.0000 -1.0000 -0.0000
vn 0.0000 1.0000 0.0000
vn 1.0000 0.0000 0.0000
vn -0.0000 -0.0000 1.0000
vn -1.0000 -0.0000 -0.0000
vn 0.0000 0.0000 -1.0000
usemtl CPU
s off
f 1/1/1 2/2/1 3/3/1 4/4/1
f 5/5/2 8/6/2 7/7/2 6/8/2
usemtl Vert
f 1/9/3 5/10/3 6/11/3 2/12/3
f 2/13/4 6/14/4 7/15/4 3/16/4
f 3/17/5 7/18/5 8/19/5 4/20/5
f 5/21/6 1/22/6 4/23/6 8/24/6
