# Blender v2.79 (sub 0) OBJ File: 'PortUSB.blend'
# www.blender.org
mtllib PortUSB2.mtl
o Cube
v 0.500402 -0.242000 -1.064648
v 0.500402 -0.242000 1.064649
v -0.500402 -0.242000 1.064649
v -0.500402 -0.242000 -1.064653
v 0.500402 0.242000 -1.064642
v 0.500402 0.242000 1.064649
v -0.500402 0.242000 1.064649
v -0.500402 0.242000 -1.064649
vt -0.002270 0.997441
vt 0.000000 0.000000
vt 0.997819 0.000000
vt 1.000090 0.997441
vt 0.059259 0.120744
vt 0.950951 0.120744
vt 0.943543 0.945064
vt 0.059259 0.945064
vt 0.642643 0.333333
vt 0.321321 0.333333
vt 0.321321 0.000000
vt 0.642643 0.000000
vt 0.963964 0.333333
vt 0.642643 0.333333
vt 0.642643 0.000000
vt 0.963964 0.000000
vt -0.003307 0.001280
vt 1.001323 0.001280
vt 0.642643 0.666667
vt -0.003307 0.996366
vt 0.998653 -0.000587
vt 0.998653 0.992316
vt 0.000446 0.990849
vt 0.000446 -0.002053
vn -0.0000 -0.0000 1.0000
vn 0.0000 -1.0000 0.0000
vn 1.0000 0.0000 0.0000
vn -1.0000 -0.0000 -0.0000
vn 0.0000 0.0000 -1.0000
vn 0.0000 1.0000 0.0000
usemtl portUSB
s off
f 2/1/1 6/2/1 7/3/1 3/4/1
usemtl Noir
f 1/5/2 2/6/2 3/7/2 4/8/2
f 1/9/3 5/10/3 6/11/3 2/12/3
f 3/13/4 7/14/4 8/15/4 4/16/4
f 5/17/5 1/18/5 4/19/5 8/20/5
usemtl USB_haut
f 5/21/6 8/22/6 7/23/6 6/24/6
